<svg width="15" height="17" viewBox="0 0 15 17" fill="none" xmlns="http://www.w3.org/2000/svg">
<path fill-rule="evenodd" clip-rule="evenodd" d="M14.2778 12.0232C14.2398 10.2547 14.1215 9.14452 13.873 8.18849C13.7392 7.67809 13.6456 7.45351 13.571 7.27329C13.502 7.10855 13.4618 7.00717 13.4048 6.69882C13.3217 6.23841 13.3077 5.85543 13.2936 5.48513C13.2922 5.44922 13.2908 5.41191 13.2894 5.37601L13.4569 4.71354C13.5379 4.39393 13.452 4.0546 13.2302 3.81594L12.3749 2.89933C12.0024 2.4713 11.5568 2.12282 11.0506 1.86305C10.8373 1.75393 10.5775 1.84122 10.4719 2.05876C10.3649 2.27559 10.4501 2.53959 10.6627 2.64941C11.0309 2.83879 11.3583 3.08519 11.6392 3.38157C11.6533 3.56461 11.668 3.74977 11.6807 3.90394C11.6997 4.15386 11.7743 4.39533 11.8961 4.61146L12.4248 5.31335C12.427 5.37953 12.4298 5.44781 12.4326 5.51892C12.4467 5.90189 12.4636 6.33626 12.5586 6.85933C12.6311 7.26273 12.7001 7.42676 12.779 7.61684C12.8458 7.78017 12.9226 7.96391 13.0401 8.41588C13.2084 9.06145 13.3717 9.94849 13.4161 12.0415C13.4618 14.1788 13.1697 14.4745 13.1105 14.5125C12.9409 14.6216 12.6607 14.6287 12.4586 14.5287C11.9792 14.2901 11.8778 13.3164 11.7969 12.5343C11.7293 11.8718 11.7539 11.3924 11.7772 10.9686C11.8088 10.3638 11.8363 9.84077 11.5005 9.25927C11.2203 8.77562 10.7782 8.39546 10.1833 8.12935L10.1636 1.50964C10.1622 1.11681 9.85031 0.799301 9.46593 0.800005L1.82612 0.823941C1.44174 0.824645 1.13127 1.14426 1.13198 1.5378L1.17281 15.2693C1.17281 15.477 1.00948 15.646 0.80673 15.6467C0.603978 15.6474 0.439242 15.8163 0.439946 16.024L0.441354 16.3281C0.442058 16.5351 0.606794 16.7034 0.81025 16.702L10.5761 16.6724C10.7789 16.6724 10.9429 16.5034 10.9429 16.2957L10.9422 15.9909C10.9408 15.7846 10.7754 15.6164 10.5719 15.6164C10.3699 15.6164 10.2051 15.4495 10.2044 15.2419L10.1861 9.1241C10.4367 9.28602 10.6289 9.48103 10.7599 9.70701C10.9542 10.0449 10.9486 10.323 10.9169 10.9214C10.8929 11.3544 10.8641 11.8929 10.9408 12.6265C11.0443 13.6248 11.1731 14.8687 12.0834 15.3207C12.2988 15.427 12.541 15.4791 12.7811 15.4784C13.0627 15.477 13.3407 15.4038 13.5667 15.2588C14.0286 14.9631 14.3249 14.2999 14.2778 12.0232M8.12974 6.71853L3.19681 6.73332C2.81243 6.73543 2.49985 6.41793 2.49915 6.02369L2.48999 3.15207C2.48929 2.76065 2.79905 2.44103 3.18414 2.43892L8.11636 2.42413C8.50145 2.42273 8.81403 2.74023 8.81473 3.13377L8.82388 6.00468C8.82529 6.39751 8.51412 6.71713 8.12974 6.71853" fill="#083EE8"/>
</svg>
