<svg width="13" height="13" viewBox="0 0 13 13" fill="none" xmlns="http://www.w3.org/2000/svg">
<path fill-rule="evenodd" clip-rule="evenodd" d="M12.289 5.57615L7.05985 0.346972C6.83769 0.124811 6.53638 0 6.2222 0H1.18463C0.530367 0 0 0.530366 0 1.18462V6.22219C-3.77981e-06 6.53637 0.124807 6.83769 0.346972 7.05984L5.57616 12.289C6.03878 12.7516 6.78884 12.7517 7.25146 12.289L12.289 7.25146C12.7517 6.78884 12.7517 6.03877 12.289 5.57615ZM6.41391 11.4513L1.18463 6.22219V1.18462H6.2222L11.4514 6.41381L6.41391 11.4513ZM3.55388 4.7385C4.20814 4.7385 4.7385 4.20813 4.7385 3.55387C4.7385 2.89962 4.20814 2.36925 3.55388 2.36925C2.89962 2.36925 2.36925 2.89962 2.36925 3.55387C2.36925 4.20813 2.89962 4.7385 3.55388 4.7385Z" fill="white"/>
</svg>
