<svg width="19" height="20" viewBox="0 0 19 20" fill="none" xmlns="http://www.w3.org/2000/svg">
<mask id="mask0_0_114" style="mask-type:alpha" maskUnits="userSpaceOnUse" x="0" y="0" width="18" height="18">
<path fill-rule="evenodd" clip-rule="evenodd" d="M0.320068 0.744461H17.5673V17.9016H0.320068V0.744461Z" fill="white"/>
</mask>
<g mask="url(#mask0_0_114)">
<path fill-rule="evenodd" clip-rule="evenodd" d="M8.94149 17.9019C6.7605 17.9019 4.57881 17.0867 2.90258 15.452C-0.493514 12.1383 -0.547018 6.69496 2.7829 3.31646C5.67071 0.386414 10.2608 -0.0993464 13.6956 2.1619C13.9153 2.30622 13.9751 2.60049 13.8301 2.81873C13.685 3.03697 13.3894 3.09681 13.1697 2.95249C10.1144 0.94187 6.03257 1.37413 3.46367 3.98104C0.501239 6.98571 0.54911 11.8278 3.56997 14.7748C6.59084 17.721 11.459 17.6738 14.4214 14.6685C16.9875 12.0658 17.3437 8.00088 15.269 5.00325C15.1198 4.78782 15.1747 4.49214 15.3915 4.3436C15.6091 4.19576 15.9055 4.24926 16.0547 4.46539C18.3871 7.83614 17.9865 12.4065 15.1022 15.333C13.4147 17.0431 11.1795 17.9019 8.94149 17.9019" fill="#083EE8"/>
</g>
<path fill-rule="evenodd" clip-rule="evenodd" d="M5.39059 13.1293C5.07942 13.1293 4.82739 12.9195 4.82739 12.6604V6.45117C4.82739 6.19209 5.07942 5.9816 5.39059 5.9816C5.70176 5.9816 5.95379 6.19209 5.95379 6.45117V12.6604C5.95379 12.9195 5.70176 13.1293 5.39059 13.1293" fill="#083EE8"/>
<path fill-rule="evenodd" clip-rule="evenodd" d="M8.77109 13.1293C8.45992 13.1293 8.20789 12.9195 8.20789 12.6604V6.45117C8.20789 6.19209 8.45992 5.9816 8.77109 5.9816C9.08225 5.9816 9.33429 6.19209 9.33429 6.45117V12.6604C9.33429 12.9195 9.08225 13.1293 8.77109 13.1293" fill="#083EE8"/>
<path fill-rule="evenodd" clip-rule="evenodd" d="M12.1516 13.1293C11.8404 13.1293 11.5876 12.9195 11.5876 12.6604V6.45117C11.5876 6.19209 11.8404 5.9816 12.1516 5.9816C12.462 5.9816 12.7148 6.19209 12.7148 6.45117V12.6604C12.7148 12.9195 12.462 13.1293 12.1516 13.1293" fill="#083EE8"/>
<path fill-rule="evenodd" clip-rule="evenodd" d="M12.2525 10.1201H5.28992C5.03437 10.1201 4.82739 9.86739 4.82739 9.55551C4.82739 9.24364 5.03437 8.99091 5.28992 8.99091H12.2525C12.5073 8.99091 12.7143 9.24364 12.7143 9.55551C12.7143 9.86739 12.5073 10.1201 12.2525 10.1201" fill="#083EE8"/>
</svg>
