<svg height="105" viewBox="0 0 103 105" width="103" xmlns="http://www.w3.org/2000/svg" xmlns:xlink="http://www.w3.org/1999/xlink"><mask id="a" fill="#fff"><path d="m.62155125.53139562h69.69600005v76.03199998h-69.69600005z" fill="#fff" fill-rule="evenodd"/></mask><path d="m1.95489754 56.6880725c4.80228591 5.6739409 9.63275676 11.3232219 14.45021926 16.9842967.3143708.3698998.725221.7355109.8520534 1.1708132.7132966 2.4338333 2.7697157 1.5224861 4.3209733 1.6736625 1.6054594.1554651 2.2699744-.9413681 2.5821772-2.3780803.2926901-1.348794.7555741-2.6632784 1.1024661-4.0024228 1.6358125-6.2958014 3.3258269-12.579809 4.8467314-18.9034869.5116657-2.1304083-.7382295-3.2851389-2.9615903-3.3065823-2.7100936-.02466-3.5729875 2.0017475-4.3253094 3.9241541-.9626253 2.4595655-1.6260562 5.0338535-2.4184876 7.5588216-.0953953-.0192992-.1907906-.0396705-.2861859-.0600418-.028185-.390271-.0682943-.7816143-.0856389-1.1729575-.6330779-14.5182982 4.6429324-27.0605811 13.8843516-37.9034693 8.5281226-10.0055209 19.0140169-16.58115958 33.1162601-14.92786841 1.0038187.11793906 2.0585871-.17905293 3.2846335-.30235286-.9951464-2.34591511-2.6201186-3.30336583-4.7621766-3.72794645-10.1064811-2.00389183-19.3316398-.14581556-28.0592253 5.3823098-14.7667582 9.35363962-28.70964785 31.15521082-24.9545421 54.40528802-.8119441-.9692446-1.3940722-1.7401372-2.055335-2.4370498-2.13988995-2.2515639-4.20823341-4.5867572-6.53024163-6.639969-.65909477-.5821901-2.08785612-.3120025-3.16322127-.4320859-.05311784 1.0121316-.28618589 2.0596449-.10081549 3.0278173.14309295.7440883.74039758 1.4495783 1.26290363 2.0671501" fill="#04c662" fill-rule="evenodd" mask="url(#a)" transform="matrix(-.82903757 .5591929 .5591929 .82903757 59.669741 .961074)"/></svg>